<svg width="197.461" height="64.795" viewBox="0 0 197.461 64.795" xmlns="http://www.w3.org/2000/svg"><g id="svgGroup" stroke-linecap="round" fill-rule="evenodd" font-size="9pt" stroke="#fff" stroke-width="0.25mm" fill="#fff" style="stroke:#fff;stroke-width:0.25mm;fill:#fff"><path d="M 34.57 64.795 L 0 64.795 L 0 50.977 L 6.494 50.977 L 6.494 13.77 L 0 13.77 L 0 0 L 34.57 0 L 34.57 13.77 L 28.076 13.77 L 28.076 50.977 L 34.57 50.977 L 34.57 64.795 Z M 99.072 37.988 L 83.496 64.795 L 45.068 0 L 68.018 0 L 85.4 28.809 L 99.072 5.371 L 99.072 37.988 Z M 197.461 64.795 L 174.512 64.795 L 135.254 0 L 158.057 0 L 197.461 64.795 Z M 123.828 64.795 L 102.246 64.795 L 102.246 0 L 123.828 0 L 123.828 64.795 Z M 65.186 64.795 L 45.02 64.795 L 45.02 6.006 L 65.186 39.844 L 65.186 64.795 Z M 154.053 64.795 L 135.254 64.795 L 135.254 6.152 L 154.053 36.963 L 154.053 64.795 Z M 197.461 0 L 197.461 58.643 L 178.662 27.686 L 178.662 0 L 197.461 0 Z" vector-effect="non-scaling-stroke"/></g></svg>
